<?xml version="1.0" encoding="UTF-8"?>
<svg version="1.1" xmlns="http://www.w3.org/2000/svg" width="715" height="512">
<path d="M0 0 C9 0 9 0 11.10731506 1.51855469 C11.56698166 2.22915039 12.02664825 2.93974609 12.50024414 3.671875 C13.31006493 4.87312012 13.31006493 4.87312012 14.13624573 6.09863281 C14.6803862 6.97358398 15.22452667 7.84853516 15.78515625 8.75 C16.66499428 10.0817627 16.66499428 10.0817627 17.56260681 11.44042969 C19.42586261 14.27533494 21.24403763 17.13620407 23.0625 20 C24.31939615 21.92895611 25.57913126 23.85606555 26.84179688 25.78125 C29.93375558 30.49745263 32.96313111 35.24627092 36 40 C36.33 26.8 36.66 13.6 37 0 C39.64 0 42.28 0 45 0 C45 18.15 45 36.3 45 55 C36 55 36 55 33.9306488 53.51940918 C33.4887471 52.82657837 33.0468454 52.13374756 32.59155273 51.41992188 C32.07169296 50.63911255 31.55183319 49.85830322 31.01622009 49.05383301 C30.4939534 48.20075562 29.97168671 47.34767822 29.43359375 46.46875 C28.86923111 45.60310425 28.30486847 44.7374585 27.72340393 43.84558105 C25.93122247 41.08185949 24.18451711 38.29244023 22.4375 35.5 C21.22880439 33.61923143 20.01724644 31.74029908 18.80273438 29.86328125 C15.82892534 25.26536188 12.91828062 20.63529082 10 16 C9.67 28.87 9.34 41.74 9 55 C6.03 55 3.06 55 0 55 C0 36.85 0 18.7 0 0 Z " fill="#F7F8FA" transform="translate(291,227)"/>
<path d="M0 0 C25.59541985 0 25.59541985 0 30.7421875 4.53515625 C34.98038779 10.2494194 35.7834801 13.91603414 35 21 C32.8077423 25.46571013 30.49598779 27.87032157 26 30 C25.34 30 24.68 30 24 30 C24.58285767 30.97610229 24.58285767 30.97610229 25.17749023 31.97192383 C26.93381705 34.91701128 28.6857049 37.86471495 30.4375 40.8125 C31.04916016 41.83666016 31.66082031 42.86082031 32.29101562 43.91601562 C32.87431641 44.89892578 33.45761719 45.88183594 34.05859375 46.89453125 C34.59798584 47.80050049 35.13737793 48.70646973 35.69311523 49.63989258 C37 52 37 52 38 55 C34.72464975 55.88707403 32.24803528 56.069229 29 55 C25.62052831 51.04529908 23.37081374 46.59731708 21 42 C20.00375742 40.26866581 19.00437802 38.53912739 18 36.8125 C16 33.26644737 16 33.26644737 16 31 C13.36 31 10.72 31 8 31 C8 38.92 8 46.84 8 55 C5.36 55 2.72 55 0 55 C0 36.85 0 18.7 0 0 Z M8 8 C8 13.28 8 18.56 8 24 C17.11503056 24.81505683 17.11503056 24.81505683 25.375 21.9375 C27.41723737 18.24576321 27.68050965 16.15867007 27 12 C25.51857925 9.652387 25.51857925 9.652387 23 8 C20.2317375 7.70550399 17.98597978 7.61656637 15.25 7.75 C12.8575 7.8325 10.465 7.915 8 8 Z " fill="#F7F8FA" transform="translate(447,227)"/>
<path d="M0 0 C3.3 0 6.6 0 10 0 C10.46897705 1.26070312 10.9379541 2.52140625 11.42114258 3.8203125 C13.17103715 8.52429053 14.92106967 13.22821723 16.67114258 17.93212891 C17.42671373 19.96303951 18.18224811 21.99396379 18.93774414 24.02490234 C20.02740835 26.95413809 21.11720737 29.88332365 22.20703125 32.8125 C22.54152786 33.71178223 22.87602448 34.61106445 23.22065735 35.53759766 C23.54076279 36.39788574 23.86086823 37.25817383 24.19067383 38.14453125 C24.4942984 38.96518066 24.79792297 39.78583008 25.11074829 40.63134766 C25.69345039 42.18346017 26.29030111 43.73035085 26.90267944 45.27099609 C28.28770107 48.78296638 29 51.16825508 29 55 C26.36 55 23.72 55 21 55 C19.02 49.555 19.02 49.555 17 44 C9.41 43.67 1.82 43.34 -6 43 C-7.65 46.96 -9.3 50.92 -11 55 C-13.97 55 -16.94 55 -20 55 C-18.02251216 48.11477307 -15.75937372 41.39285627 -13.2421875 34.6875 C-12.8936673 33.75196289 -12.54514709 32.81642578 -12.18606567 31.85253906 C-11.45642819 29.89576445 -10.7252814 27.93955201 -9.99267578 25.98388672 C-8.86803184 22.98139692 -7.74808749 19.97718604 -6.62890625 16.97265625 C-5.91693641 15.06500347 -5.20470629 13.15744781 -4.4921875 11.25 C-3.98907547 9.90168091 -3.98907547 9.90168091 -3.47579956 8.52612305 C-3.16522614 7.69765869 -2.85465271 6.86919434 -2.53466797 6.015625 C-2.12521439 4.92169434 -2.12521439 4.92169434 -1.70748901 3.80566406 C-1 2 -1 2 0 0 Z M4 10 C2.66165014 13.78991493 1.33017337 17.58220836 0 21.375 C-0.57234375 22.99535156 -0.57234375 22.99535156 -1.15625 24.6484375 C-1.5171875 25.6796875 -1.878125 26.7109375 -2.25 27.7734375 C-2.75273438 29.20308838 -2.75273438 29.20308838 -3.265625 30.66162109 C-4.09987485 32.90952173 -4.09987485 32.90952173 -4 35 C1.94 35 7.88 35 14 35 C11.54258108 26.59304054 8.79908648 18.29768718 6 10 C5.34 10 4.68 10 4 10 Z " fill="#F7F8FA" transform="translate(530,227)"/>
<path d="M0 0 C3.92930334 2.40745062 6.12852615 5.45182059 8.375 9.4375 C8.045 10.4275 7.715 11.4175 7.375 12.4375 C5.065 12.7675 2.755 13.0975 0.375 13.4375 C-0.0375 12.65375 -0.45 11.87 -0.875 11.0625 C-2.76258156 8.23112765 -3.52726895 7.6160434 -6.625 6.4375 C-9.34187497 6.12242313 -9.34187497 6.12242313 -12.1875 6.1875 C-13.13753906 6.18234375 -14.08757812 6.1771875 -15.06640625 6.171875 C-17.86599273 6.26173925 -17.86599273 6.26173925 -20.625 8.4375 C-21.60057588 12.17720756 -21.67495759 14.76264845 -20.625 18.4375 C-19.95855469 18.60765625 -19.29210937 18.7778125 -18.60546875 18.953125 C3.8019238 24.84485898 3.8019238 24.84485898 8.8125 32.6875 C9.80686783 37.54885382 9.72506049 42.08168975 7.2109375 46.46875 C4.02231389 50.49289531 0.48877942 53.37686427 -4.625 54.4375 C-12.28949149 55.29386776 -19.11953423 54.84733154 -25.625 50.4375 C-29.21837383 47.17010734 -31.69182742 44.27303064 -32.625 39.4375 C-29.25402617 37.93928941 -27.42057881 37.4375 -23.625 37.4375 C-23.274375 38.365625 -22.92375 39.29375 -22.5625 40.25 C-20.60779802 43.46580003 -19.27229312 44.75889118 -15.73046875 46.03515625 C-11.68283941 46.80863644 -7.58847796 46.53230685 -3.625 45.4375 C-0.82087346 43.30958981 -0.65480578 42.64241473 -0.125 39 C-0.27146817 35.38598135 -0.27146817 35.38598135 -2.66015625 33.37109375 C-6.19954558 31.06279636 -9.51478155 30.0274149 -13.5625 28.9375 C-19.82536239 27.24167358 -25.18821946 25.36163664 -29.5 20.1875 C-31.27546837 15.8474662 -31.46617374 11.91095135 -29.96875 7.5078125 C-28.13553726 3.82558347 -25.76441068 0.97595534 -22.0078125 -0.90234375 C-15.13166606 -2.80737448 -6.60207479 -2.90491291 0 0 Z " fill="#F7F8FA" transform="translate(183.625,228.5625)"/>
<path d="M0 0 C2.64 0 5.28 0 8 0 C8.01981934 1.01312256 8.03963867 2.02624512 8.06005859 3.07006836 C8.13673611 6.86668719 8.2253519 10.66295341 8.31738281 14.45922852 C8.355418 16.09522486 8.39031288 17.73129761 8.421875 19.36743164 C7.8393872 33.56752834 7.8393872 33.56752834 12.81640625 46.03515625 C16.81453633 47.80177186 20.72925232 47.64268533 25 47 C27.93423195 45.20353146 29.47205355 44.0558929 31 41 C32.08558227 31.78371926 32.26542471 22.45527507 32.5625 13.1875 C32.60568359 11.91068359 32.64886719 10.63386719 32.69335938 9.31835938 C32.79805755 6.2123135 32.90023438 3.10620754 33 0 C35.64 0 38.28 0 41 0 C41.09935879 5.69249459 41.17169923 11.38447718 41.21972656 17.07763672 C41.23976141 19.01164552 41.26699729 20.94559435 41.30175781 22.87939453 C41.35063571 25.66974743 41.37305019 28.45929501 41.390625 31.25 C41.41127014 32.10553467 41.43191528 32.96106934 41.45318604 33.8425293 C41.45556308 40.29604741 40.06238188 45.68708487 35.58770752 50.52783203 C30.0586855 55.41144378 24.95108568 56.46681342 17.78515625 56.3125 C12.10488463 55.67516237 7.90367218 53.3135062 4.125 49.0625 C0.01764984 43.1430836 -0.27840023 38.55391115 -0.1953125 31.54296875 C-0.1924826 30.64000565 -0.18965271 29.73704254 -0.18673706 28.80671692 C-0.17557607 25.93350766 -0.15047897 23.06061445 -0.125 20.1875 C-0.11496493 18.23503056 -0.10584 16.28255621 -0.09765625 14.33007812 C-0.07565008 9.55326434 -0.04114831 4.77668569 0 0 Z " fill="#F7F8FA" transform="translate(371,227)"/>
<path d="M0 0 C3.3 0 6.6 0 10 0 C11.46220279 2.56035921 12.91985153 5.1231356 14.375 7.6875 C14.7875 8.40873047 15.2 9.12996094 15.625 9.87304688 C17.68432272 13.51007651 19.58289052 17.05233788 21 21 C21.66 21 22.32 21 23 21 C23.23589844 20.34644531 23.47179687 19.69289062 23.71484375 19.01953125 C25.39737119 15.06635887 27.40383383 11.39801835 29.5625 7.6875 C29.95501953 6.94693359 30.34753906 6.20636719 30.75195312 5.44335938 C32.02937314 3.28111177 33.09413897 1.64158163 35 0 C38.10295446 -0.63195182 40.88253167 -0.4739785 44 0 C42.67355903 3.74209009 41.03058461 6.47600909 38.55859375 9.5703125 C27.27178253 24.54706901 24.71237556 36.39070992 26 55 C23.36 55 20.72 55 18 55 C18.04302246 54.2972998 18.08604492 53.59459961 18.13037109 52.87060547 C19.12165996 32.06030571 14.11810419 19.93975632 1.29248047 3.85913086 C0 2 0 2 0 0 Z " fill="#F7F8FA" transform="translate(218,227)"/>
<path d="M0 0 C4.62 0 9.24 0 14 0 C16 6 16 6 16 10 C15.01 10 14.02 10 13 10 C12.505 6.535 12.505 6.535 12 3 C7.545 3.495 7.545 3.495 3 4 C2.835 4.9075 2.67 5.815 2.5 6.75 C0.64919967 10.76006737 -1.03520649 11.65973322 -4.97265625 13.3828125 C-8.4541458 14.44268793 -10.80582591 13.47043222 -14.0625 12.1875 C-14.701875 12.125625 -15.34125 12.06375 -16 12 C-18.27144074 13.85432087 -18.27144074 13.85432087 -20 16 C-19.649375 16.70125 -19.29875 17.4025 -18.9375 18.125 C-17.44935573 22.68864244 -18.61597039 25.86924616 -20.125 30.3125 C-22 33 -22 33 -25.6875 33.875 C-27.3271875 33.936875 -27.3271875 33.936875 -29 34 C-29 36.97 -29 39.94 -29 43 C-27.741875 43.165 -26.48375 43.33 -25.1875 43.5 C-22.549219 44.15021464 -21.35633079 44.49820506 -19.765625 46.73828125 C-17.78507892 51.69898866 -17.85473962 55.09280056 -19.8125 60.0625 C-19.874375 60.701875 -19.93625 61.34125 -20 62 C-18.14567913 64.27144074 -18.14567913 64.27144074 -16 66 C-15.29875 65.649375 -14.5975 65.29875 -13.875 64.9375 C-10.3974074 63.80350241 -8.53080731 64.1353125 -5 65 C-3.9275 65.20625 -2.855 65.4125 -1.75 65.625 C1 67 1 67 2.375 70.625 C2.58125 71.73875 2.7875 72.8525 3 74 C5.97 74.33 8.94 74.66 12 75 C12.33 72.36 12.66 69.72 13 67 C13.99 67 14.98 67 16 67 C15.85892253 68.45880109 15.71197585 69.91703551 15.5625 71.375 C15.48128906 72.18710938 15.40007812 72.99921875 15.31640625 73.8359375 C15 76 15 76 14 78 C9.38 78 4.76 78 0 78 C-0.350625 76.72125 -0.70125 75.4425 -1.0625 74.125 C-2.42080531 70.48344814 -2.71516412 70.13982852 -6.4375 68.3125 C-9.94551594 67.66639949 -9.94551594 67.66639949 -12.4375 69.375 C-12.953125 69.91125 -13.46875 70.4475 -14 71 C-17.10442031 69.6095501 -19.3656443 67.98428402 -21.8125 65.625 C-22.43769531 65.03976563 -23.06289063 64.45453125 -23.70703125 63.8515625 C-25 62 -25 62 -24.7734375 59.8984375 C-24 58 -24 58 -22.8125 56 C-22.544375 55.34 -22.27625 54.68 -22 54 C-22.83333333 51.91666667 -22.83333333 51.91666667 -24 50 C-24 49.01 -24 48.02 -24 47 C-27.96 46.505 -27.96 46.505 -32 46 C-32 41.38 -32 36.76 -32 32 C-27 30 -27 30 -24 30 C-23.7834375 28.8553125 -23.7834375 28.8553125 -23.5625 27.6875 C-23 25 -23 25 -22 22 C-22.495 21.360625 -22.99 20.72125 -23.5 20.0625 C-25 18 -25 18 -24.84765625 16.13671875 C-23.73519005 13.33248368 -22.11451488 11.8233475 -19.9375 9.75 C-19.20402344 9.04359375 -18.47054688 8.3371875 -17.71484375 7.609375 C-17.14894531 7.07828125 -16.58304687 6.5471875 -16 6 C-15.39027344 6.31453125 -14.78054688 6.6290625 -14.15234375 6.953125 C-10.68778548 8.6382459 -8.12742361 9.20975323 -4.3125 8.5 C-1.61732422 7.0822864 -1.61732422 7.0822864 -0.6875 3.375 C-0.460625 2.26125 -0.23375 1.1475 0 0 Z " fill="#F7F8FA" transform="translate(346,125)"/>
<path d="M0 0 C2 3 2 3 1.625 5.6875 C1.41875 6.450625 1.2125 7.21375 1 8 C0.39671875 8.17015625 -0.2065625 8.3403125 -0.828125 8.515625 C-2.02695312 8.87914062 -2.02695312 8.87914062 -3.25 9.25 C-4.03890625 9.48203125 -4.8278125 9.7140625 -5.640625 9.953125 C-8.12670267 10.85977609 -8.12670267 10.85977609 -9.78515625 13.0246582 C-12.58695193 15.52348193 -14.08570482 15.53919832 -17.796875 15.65234375 C-19.48296875 15.73452148 -19.48296875 15.73452148 -21.203125 15.81835938 C-23.55197231 15.89725788 -25.9009341 15.97282443 -28.25 16.04492188 C-36.33827823 16.44656583 -42.04327441 17.68351847 -47.63793945 23.78686523 C-51.52519901 28.67607483 -51.67501594 33.80274281 -51.421875 39.87109375 C-50.64508402 45.63229354 -48.69836959 49.34517835 -44.5625 53.375 C-40.17681132 56.15616843 -36.7030837 57.24095868 -31.5078125 57.16796875 C-30.47269531 57.17505859 -29.43757813 57.18214844 -28.37109375 57.18945312 C-26.2147435 57.18815568 -24.05831391 57.16745923 -21.90234375 57.12695312 C-14.08391904 57.22893258 -14.08391904 57.22893258 -10.79907227 59.56567383 C-8.94921875 61.46875 -8.94921875 61.46875 -7.4284668 63.36914062 C-5.35246849 65.73927712 -2.98490006 66.23642092 0 67 C0.99 67.99 0.99 67.99 2 69 C1.67028521 72.29714793 1.3773161 73.6226839 -1 76 C-3.5 76.3125 -3.5 76.3125 -6 76 C-8 73 -8 73 -8.875 69.5625 C-10.13326331 65.57799952 -10.58321361 64.34904064 -14 62 C-18.68408214 61.33528016 -23.42028126 61.54152224 -28.140625 61.59960938 C-36.18149912 61.51038297 -42.91446373 59.79345559 -48.94311523 54.19580078 C-53.82284704 48.88066559 -55.88301796 43.25288646 -56 36 C-55.0290045 26.9065501 -50.86271133 21.5081859 -44.1953125 15.515625 C-37.51333236 10.90244298 -29.75377333 11.65033214 -21.96679688 11.609375 C-16.15843392 11.46858652 -16.15843392 11.46858652 -10.890625 9.19140625 C-8.43827713 6.34891212 -7.88472776 3.60696701 -7 0 C-4.27584084 -1.36207958 -2.87220643 -0.86166193 0 0 Z " fill="#F7F8FA" transform="translate(384,127)"/>
<path d="M0 0 C1.875 1.1875 1.875 1.1875 3 3 C2.75546876 6.34192692 2.39456443 7.60543557 0 10 C-2.4375 10.3125 -2.4375 10.3125 -5 10 C-6.66015625 8.48046875 -6.66015625 8.48046875 -8 7 C-8.7321875 7.97582031 -9.464375 8.95164063 -10.21875 9.95703125 C-14.09964777 13.83451274 -17.84146799 13.6765469 -23.12109375 13.73632812 C-24.23613281 13.72021484 -25.35117187 13.70410156 -26.5 13.6875 C-36.24284408 13.31950433 -36.24284408 13.31950433 -45 17 C-47.95455268 21.33334393 -48.5660929 24.81081509 -48 30 C-46.31532001 33.70629598 -44.46862785 35.89574873 -41 38 C-38.06889086 38.42243778 -38.06889086 38.42243778 -34.84375 38.3359375 C-33.65652344 38.34882813 -32.46929687 38.36171875 -31.24609375 38.375 C-28.7486857 38.375 -26.25126543 38.36718727 -23.75390625 38.3515625 C-22.56667969 38.36703125 -21.37945312 38.3825 -20.15625 38.3984375 C-19.07150391 38.39505371 -17.98675781 38.39166992 -16.86914062 38.38818359 C-13.07221713 39.1978407 -12.2036272 40.91360881 -10 44 C-9.01 44.33 -8.02 44.66 -7 45 C-6.608125 44.484375 -6.21625 43.96875 -5.8125 43.4375 C-4 42 -4 42 -1.4375 42.125 C1 43 1 43 3 46 C2.64111965 48.96076291 2.15341979 49.84658021 0 52 C-2.98102807 52.38433089 -4.54273739 52.26199912 -7.16796875 50.7578125 C-8.16763672 49.94957031 -8.16763672 49.94957031 -9.1875 49.125 C-9.86167969 48.59132812 -10.53585937 48.05765625 -11.23046875 47.5078125 C-13 46 -13 46 -15 44 C-17.39091964 43.69452262 -17.39091964 43.69452262 -20.1640625 43.7265625 C-21.20433594 43.7059375 -22.24460937 43.6853125 -23.31640625 43.6640625 C-25.49862197 43.63829844 -27.68093885 43.619905 -29.86328125 43.609375 C-36.69257099 43.45817301 -41.1812414 42.65270048 -47 39 C-51.64305954 34.11883485 -52.35728013 30.03299394 -52.28125 23.50390625 C-51.7247527 18.54953445 -48.97706409 15.86074694 -45.375 12.6875 C-41.70155612 10.07742145 -39.7768365 9.88797538 -35.29296875 9.89453125 C-34.14892578 9.87970703 -33.00488281 9.86488281 -31.82617188 9.84960938 C-29.41222929 9.82499053 -26.99800959 9.81959181 -24.58398438 9.83398438 C-18.53653014 9.94087827 -18.53653014 9.94087827 -13.14892578 7.67675781 C-11.63297996 5.90318434 -11.63297996 5.90318434 -10 3 C-6.62583207 0.46937405 -4.23560373 -0.66877954 0 0 Z " fill="#F7F8FA" transform="translate(390,138)"/>
<path d="M0 0 C5 0 5 0 6.76098633 1.74414062 C7.27943115 2.54013672 7.79787598 3.33613281 8.33203125 4.15625 C8.90244141 5.01347656 9.47285156 5.87070312 10.06054688 6.75390625 C10.63869141 7.66011719 11.21683594 8.56632812 11.8125 9.5 C12.40998047 10.40621094 13.00746094 11.31242187 13.62304688 12.24609375 C15.09751507 14.4872854 16.55079948 16.74238747 18 19 C18.33 12.73 18.66 6.46 19 0 C20.98 0 22.96 0 25 0 C25 9.9 25 19.8 25 30 C19 30 19 30 17.12548828 28.25585938 C16.61228027 27.45986328 16.09907227 26.66386719 15.5703125 25.84375 C15.003125 24.98652344 14.4359375 24.12929688 13.8515625 23.24609375 C13.28179687 22.33988281 12.71203125 21.43367188 12.125 20.5 C11.53203125 19.59378906 10.9390625 18.68757813 10.328125 17.75390625 C8.86673788 15.51468405 7.4308805 13.25883806 6 11 C5.67 17.27 5.34 23.54 5 30 C3.35 30 1.7 30 0 30 C0 20.1 0 10.2 0 0 Z " fill="#F7F8FA" transform="translate(494,297)"/>
<path d="M0 0 C4.004793 2.0023965 6.6587028 4.17998877 9 8 C10.66026461 12.98079383 10.59903425 17.30273629 8.875 22.1875 C6.62306851 25.56539724 4.72187938 28.29504551 1 30 C-4.64800862 30.8909753 -9.36856606 30.7727845 -14.5625 28.3125 C-18.85932313 24.23602677 -20.18638823 21.54637766 -20.4375 15.625 C-20.27769272 10.23513614 -19.28941145 7.26734458 -16 3 C-11.59330591 -1.13962172 -5.69809208 -0.76141906 0 0 Z M-13 7 C-15.84310576 11.26465864 -15.61431078 14.99775508 -15 20 C-13.78475509 23.2071208 -13.78475509 23.2071208 -11 25 C-7.91115939 26.03742844 -5.24147023 26.35891712 -2 26 C1.76983 23.98044822 3.39806274 22.88402961 4.69140625 18.8359375 C5.30121012 14.9973826 5.28997992 12.64900267 3.6875 9.0625 C1.06198101 5.82765608 1.06198101 5.82765608 -2.6875 4.1875 C-6.89123631 3.94955266 -9.320161 5.01854823 -13 7 Z " fill="#F7F8FA" transform="translate(467,297)"/>
<path d="M0 0 C4.004793 2.0023965 6.6587028 4.17998877 9 8 C10.66026461 12.98079383 10.59903425 17.30273629 8.875 22.1875 C6.62306851 25.56539724 4.72187938 28.29504551 1 30 C-4.64800862 30.8909753 -9.36856606 30.7727845 -14.5625 28.3125 C-18.85932313 24.23602677 -20.18638823 21.54637766 -20.4375 15.625 C-20.27769272 10.23513614 -19.28941145 7.26734458 -16 3 C-11.59330591 -1.13962172 -5.69809208 -0.76141906 0 0 Z M-13 7 C-15.84310576 11.26465864 -15.61431078 14.99775508 -15 20 C-13.78475509 23.2071208 -13.78475509 23.2071208 -11 25 C-7.91115939 26.03742844 -5.24147023 26.35891712 -2 26 C1.76983 23.98044822 3.39806274 22.88402961 4.69140625 18.8359375 C5.30121012 14.9973826 5.28997992 12.64900267 3.6875 9.0625 C0.89657403 5.64405451 0.89657403 5.64405451 -3.25 4.1875 C-7.536961 3.97315195 -9.4372703 4.68008299 -13 7 Z " fill="#F7F8FA" transform="translate(295,297)"/>
<path d="M0 0 C1.98 0 3.96 0 6 0 C7.27833161 3.121983 8.54622092 6.24811122 9.8125 9.375 C10.34713867 10.68017578 10.34713867 10.68017578 10.89257812 12.01171875 C13.27910096 17.92328908 15.27761674 23.86220259 17 30 C15.35 30 13.7 30 12 30 C11.01 28.02 10.02 26.04 9 24 C5.04 24 1.08 24 -3 24 C-3.66 25.98 -4.32 27.96 -5 30 C-6.65 30 -8.3 30 -10 30 C-8.63218625 22.98095574 -6.49261049 16.5832708 -3.875 9.9375 C-3.50246094 8.97650391 -3.12992188 8.01550781 -2.74609375 7.02539062 C-1.83644515 4.68129617 -0.92101046 2.33964819 0 0 Z M3 6 C2.32694982 7.60149886 1.66177773 9.20631029 1 10.8125 C0.62875 11.70582031 0.2575 12.59914063 -0.125 13.51953125 C-1.16633237 16.0331433 -1.16633237 16.0331433 -1 19 C1.97 19 4.94 19 8 19 C6.68 14.71 5.36 10.42 4 6 C3.67 6 3.34 6 3 6 Z " fill="#F7F8FA" transform="translate(161,297)"/>
<path d="M0 0 C3.0625 1.1875 3.0625 1.1875 5 3 C5.8125 5.6875 5.8125 5.6875 6 8 C4.35 8.33 2.7 8.66 1 9 C0.67 8.01 0.34 7.02 0 6 C-2.70879335 4.64560332 -5.00933268 4.93498549 -8 5 C-8.33 6.65 -8.66 8.3 -9 10 C-8.09636719 10.31453125 -7.19273437 10.6290625 -6.26171875 10.953125 C-5.08222656 11.38109375 -3.90273437 11.8090625 -2.6875 12.25 C-0.92986328 12.87648438 -0.92986328 12.87648438 0.86328125 13.515625 C4.05405352 15.0255795 5.37261976 15.91033607 7 19 C6.93182988 22.81752689 6.6666355 25.13584288 4.3125 28.1875 C0.64181842 31.0645207 -2.63662841 30.54442001 -7.140625 30.390625 C-10.83286508 29.88622062 -12.65918514 28.90583914 -15 26 C-15.8125 23.75 -15.8125 23.75 -16 22 C-14.35 21.67 -12.7 21.34 -11 21 C-10.67 21.66 -10.34 22.32 -10 23 C-8.23173046 25.17282569 -8.23173046 25.17282569 -6.01953125 25.265625 C-4.01111857 25.25140615 -2.00415878 25.13142025 0 25 C1.01111093 21.95086772 1.01111093 21.95086772 0 19 C-3.00611327 17.93215678 -6.05102493 17.07452538 -9.1171875 16.1953125 C-12.27097233 14.88764562 -13.3514178 13.94389678 -15 11 C-15.67296739 7.04631659 -15.32778892 5.50260967 -13.125 2.125 C-8.73960494 -0.85706864 -5.1553053 -0.77033298 0 0 Z " fill="#F7F8FA" transform="translate(253,297)"/>
<path d="M0 0 C3 1.1875 3 1.1875 5 3 C5.8125 5.6875 5.8125 5.6875 6 8 C4.68 8.33 3.36 8.66 2 9 C1.649375 8.34 1.29875 7.68 0.9375 7 C-0.96557142 4.58896039 -0.96557142 4.58896039 -4.6875 4.75 C-5.780625 4.8325 -6.87375 4.915 -8 5 C-8.33 6.65 -8.66 8.3 -9 10 C-8.09636719 10.31453125 -7.19273437 10.6290625 -6.26171875 10.953125 C-5.08222656 11.38109375 -3.90273438 11.8090625 -2.6875 12.25 C-0.92986328 12.87648438 -0.92986328 12.87648438 0.86328125 13.515625 C4.05685771 15.02690651 5.31327902 15.9520656 7 19 C7.6606452 22.88129052 7.30475477 24.49933146 5.25 27.875 C0.34256812 31.08370546 -4.29839837 30.85957756 -10 30 C-13.29275395 28.19221352 -14.54748363 27.25312226 -15.8125 23.75 C-15.9053125 22.88375 -15.9053125 22.88375 -16 22 C-14.35 21.67 -12.7 21.34 -11 21 C-10.67 21.66 -10.34 22.32 -10 23 C-8.23173046 25.17282569 -8.23173046 25.17282569 -6.01953125 25.265625 C-4.01111857 25.25140615 -2.00415878 25.13142025 0 25 C0.33 23.35 0.66 21.7 1 20 C-0.010625 19.566875 -1.02125 19.13375 -2.0625 18.6875 C-2.69671875 18.41292969 -3.3309375 18.13835937 -3.984375 17.85546875 C-5.29937004 17.29736039 -6.62222887 16.75733074 -7.953125 16.23828125 C-11.44900139 14.85021268 -12.85509392 14.21735911 -15 11 C-15.375 8.0625 -15.375 8.0625 -15 5 C-10.65213457 -0.36236736 -6.56657713 -0.62376812 0 0 Z " fill="#F7F8FA" transform="translate(551,297)"/>
<path d="M0 0 C1.65 0 3.3 0 5 0 C5.01981934 0.68626465 5.03963867 1.3725293 5.06005859 2.07958984 C5.15510945 5.17845779 5.26486847 8.27663294 5.375 11.375 C5.4059375 12.45523437 5.436875 13.53546875 5.46875 14.6484375 C5.50742187 15.6796875 5.54609375 16.7109375 5.5859375 17.7734375 C5.6173584 18.72653809 5.6487793 19.67963867 5.68115234 20.66162109 C5.78555796 23.18895176 5.78555796 23.18895176 8 25 C11 25.33333333 11 25.33333333 14 25 C16.56136221 22.43863779 16.29666857 21.33438669 16.4140625 17.7734375 C16.45273437 16.7421875 16.49140625 15.7109375 16.53125 14.6484375 C16.5621875 13.56820313 16.593125 12.48796875 16.625 11.375 C16.66367187 10.28703125 16.70234375 9.1990625 16.7421875 8.078125 C16.83666247 5.38558835 16.92222431 2.69306243 17 0 C18.65 0 20.3 0 22 0 C22.11643304 3.89558088 22.18732909 7.79071258 22.25 11.6875 C22.30027344 13.34168945 22.30027344 13.34168945 22.3515625 15.02929688 C22.45073033 23.23543471 22.45073033 23.23543471 20.109375 27.20703125 C16.31773745 30.42992316 13.32578663 30.32795005 8.484375 30.29296875 C5.02801166 29.88537873 3.31336131 28.53723498 1 26 C-0.30475618 23.39048764 -0.11301572 21.47298715 -0.09765625 18.5546875 C-0.09443359 17.47832031 -0.09121094 16.40195312 -0.08789062 15.29296875 C-0.07951172 14.16503906 -0.07113281 13.03710938 -0.0625 11.875 C-0.05798828 10.73933594 -0.05347656 9.60367187 -0.04882812 8.43359375 C-0.03701615 5.62234362 -0.02054507 2.8111977 0 0 Z " fill="#F7F8FA" transform="translate(352,297)"/>
<path d="M0 0 C6.6 0 13.2 0 20 0 C20 1.65 20 3.3 20 5 C17.69 5 15.38 5 13 5 C13 13.25 13 21.5 13 30 C11.35 30 9.7 30 8 30 C8 21.75 8 13.5 8 5 C5.36 5 2.72 5 0 5 C0 3.35 0 1.7 0 0 Z " fill="#F7F8FA" transform="translate(389,297)"/>
<path d="M0 0 C0.99 0.103125 1.98 0.20625 3 0.3125 C5 3.3125 5 3.3125 4.8125 5.875 C4 8.3125 4 8.3125 1 10.3125 C-1.6875 9.9375 -1.6875 9.9375 -4 9.3125 C-4 8.6525 -4 7.9925 -4 7.3125 C-5.57467041 7.32035522 -5.57467041 7.32035522 -7.18115234 7.32836914 C-11.06867625 7.34644239 -14.95619644 7.35794054 -18.84375 7.36743164 C-20.52767562 7.37246653 -22.21159686 7.37929481 -23.89550781 7.38793945 C-26.31316203 7.40004196 -28.73075856 7.40573668 -31.1484375 7.41015625 C-31.9036972 7.41531754 -32.65895691 7.42047882 -33.43710327 7.42579651 C-38.77225659 7.42637171 -38.77225659 7.42637171 -41 6.3125 C-41 5.6525 -41 4.9925 -41 4.3125 C-37.95977795 2.79238897 -34.77572699 3.11432969 -31.4375 3.06640625 C-29.90363989 3.03347904 -28.36978586 3.00026721 -26.8359375 2.96679688 C-24.41312702 2.91929561 -21.9903432 2.87484396 -19.56738281 2.83569336 C-17.23216389 2.79607719 -14.89744534 2.7445204 -12.5625 2.69140625 C-11.83538818 2.6829921 -11.10827637 2.67457794 -10.35913086 2.66590881 C-5.89800258 2.55577354 -4.05638822 0.42254044 0 0 Z " fill="#F7F8FA" transform="translate(388,158.6875)"/>
<path d="M0 0 C1.65 0 3.3 0 5 0 C5 8.58 5 17.16 5 26 C8.3 26 11.6 26 15 26 C15 27.32 15 28.64 15 30 C10.05 30 5.1 30 0 30 C0 20.1 0 10.2 0 0 Z " fill="#F7F8FA" transform="translate(322,297)"/>
<path d="M0 0 C1.98 0 3.96 0 6 0 C6 9.9 6 19.8 6 30 C4.02 30 2.04 30 0 30 C0 20.1 0 10.2 0 0 Z " fill="#F7F8FA" transform="translate(193,297)"/>
<path d="M0 0 C1.65 0 3.3 0 5 0 C5 9.9 5 19.8 5 30 C3.35 30 1.7 30 0 30 C0 20.1 0 10.2 0 0 Z " fill="#F7F8FA" transform="translate(425,297)"/>
</svg>
