<svg xmlns="http://www.w3.org/2000/svg" width="3090" height="2214" viewBox="0 0 3090 2214" version="1.1">
	<path d="M 1495.467 539.037 C 1494.453 540.157, 1493.534 541.844, 1493.424 542.787 C 1493.077 545.761, 1488.859 570.476, 1488.676 570.610 C 1488.579 570.680, 1484.225 572.193, 1479 573.971 C 1473.775 575.749, 1465.980 578.988, 1461.678 581.168 L 1453.856 585.132 1448.586 581.066 C 1445.687 578.830, 1442.832 577, 1442.241 577 C 1441.650 577, 1441.017 576.648, 1440.833 576.218 C 1440.223 574.788, 1427.799 567, 1426.126 567 C 1424.291 567, 1387.613 603.486, 1386.660 606.260 C 1386.250 607.453, 1388.943 612.284, 1395.036 621.284 L 1404.017 634.549 1400.024 642.525 C 1396.144 650.273, 1391.326 662.243, 1390.296 666.694 C 1389.761 669.005, 1389.235 669.190, 1378 671.021 C 1374.425 671.604, 1368.800 672.526, 1365.500 673.070 C 1355.756 674.677, 1356 673.881, 1356 704 C 1356 727.092, 1356.182 729.995, 1357.750 731.859 C 1359.163 733.539, 1362.357 734.398, 1374.352 736.326 C 1383.785 737.842, 1389.522 739.221, 1390.074 740.106 C 1390.552 740.873, 1391.878 744.650, 1393.019 748.500 C 1394.160 752.350, 1397.113 759.479, 1399.581 764.342 L 1404.067 773.184 1401.283 777.590 C 1399.753 780.014, 1398.162 781.997, 1397.750 781.998 C 1397.338 781.999, 1397 782.675, 1397 783.500 C 1397 784.325, 1396.550 785, 1396 785 C 1395.450 785, 1395 785.522, 1395 786.159 C 1395 786.797, 1393.263 789.619, 1391.140 792.431 C 1384.216 801.601, 1383.344 799.787, 1405.174 821.617 C 1419.295 835.738, 1425.192 841, 1426.895 841 C 1428.180 841, 1431.317 839.472, 1433.866 837.605 C 1436.415 835.738, 1442.063 831.829, 1446.418 828.920 L 1454.337 823.630 1460.418 826.772 C 1466.146 829.731, 1485.557 837, 1487.730 837 C 1488.279 837, 1489.754 843.638, 1491.007 851.750 C 1492.260 859.862, 1493.906 867.513, 1494.665 868.750 C 1496.043 870.995, 1496.105 871, 1523.500 871 C 1550.883 871, 1550.958 870.994, 1552.376 868.750 C 1553.159 867.513, 1554.784 860.237, 1555.988 852.583 C 1557.191 844.929, 1558.581 837.601, 1559.076 836.300 C 1560.711 832, 1556.880 828.523, 1553.126 830.901 C 1551.780 831.754, 1547.709 848.171, 1546.403 858.017 L 1545.742 863 1524.390 863 C 1503.068 863, 1503.037 862.997, 1502.517 860.750 C 1502.230 859.513, 1501.106 852.933, 1500.019 846.128 C 1498.932 839.324, 1497.524 833.132, 1496.890 832.368 C 1496.257 831.605, 1493.210 830.285, 1490.119 829.436 C 1487.029 828.587, 1483.600 827.528, 1482.500 827.082 C 1481.400 826.636, 1480.170 826.193, 1479.766 826.098 C 1477.082 825.465, 1463.916 819.335, 1461.034 817.377 C 1455.471 813.597, 1453.268 814.197, 1440.377 823 C 1433.933 827.400, 1428.325 831, 1427.915 831 C 1426.681 831, 1398 802.292, 1398 801.057 C 1398 800.429, 1398.475 799.372, 1399.056 798.708 C 1401.273 796.171, 1412.237 780.370, 1413.648 777.677 C 1415.065 774.972, 1414.898 774.389, 1409.642 763.677 C 1404.329 752.849, 1399 738.792, 1399 735.605 C 1399 734.748, 1397.987 733.399, 1396.750 732.608 C 1394.734 731.320, 1381.654 728.304, 1370.250 726.497 L 1366 725.824 1366 704.971 C 1366 693.338, 1366.407 683.866, 1366.921 683.549 C 1367.428 683.236, 1373.695 682.082, 1380.849 680.986 C 1396.464 678.593, 1396.564 678.558, 1397.782 675.178 C 1398.313 673.705, 1400.170 668.450, 1401.910 663.500 C 1403.649 658.550, 1407.081 650.569, 1409.536 645.763 C 1411.991 640.958, 1414 636.193, 1414 635.174 C 1414 634.155, 1410.400 628.085, 1406 621.684 C 1401.600 615.283, 1398 609.468, 1398 608.760 C 1398 606.476, 1426.651 578.652, 1428.338 579.299 C 1429.177 579.621, 1433.245 582.386, 1437.379 585.442 C 1441.512 588.499, 1445.367 591, 1445.947 591 C 1446.526 591, 1447 591.378, 1447 591.839 C 1447 592.988, 1451.612 595, 1454.243 595 C 1455.425 595, 1460.249 593.008, 1464.964 590.573 C 1474.037 585.887, 1480.910 583.144, 1490.145 580.522 C 1497.088 578.551, 1497.623 577.489, 1500.462 560.031 L 1502.500 547.500 1523.940 547.500 L 1545.381 547.500 1547.658 560.500 C 1548.910 567.650, 1550.188 574.532, 1550.498 575.793 C 1551.082 578.178, 1554.562 580.094, 1556.778 579.251 C 1559.817 578.094, 1560.093 575.107, 1558.116 564.749 C 1557.040 559.112, 1555.891 552.700, 1555.562 550.500 C 1554.229 541.586, 1553.679 539.889, 1551.662 538.476 C 1549.935 537.266, 1544.842 537, 1523.432 537 C 1498.423 537, 1497.231 537.087, 1495.467 539.037 M 1635 546.769 C 1630.511 549.002, 1629.063 550.387, 1627.121 554.301 C 1624.661 559.258, 1624.116 563.951, 1625.298 570 C 1625.968 573.429, 1625.794 573.663, 1616.744 581.500 C 1611.663 585.900, 1605.254 591.596, 1602.503 594.157 L 1597.500 598.814 1555.500 599.267 C 1514.879 599.705, 1513.106 599.805, 1501.500 602.323 C 1494.900 603.754, 1487.140 606.067, 1484.255 607.463 C 1481.370 608.858, 1478.738 610, 1478.406 610 C 1477.292 610, 1465.559 617.397, 1460 621.604 C 1451.072 628.360, 1435 646.454, 1435 649.749 C 1435 650.289, 1434.159 651.803, 1433.131 653.115 C 1432.102 654.427, 1430.249 657.975, 1429.011 661 C 1427.773 664.025, 1426.169 667.855, 1425.447 669.512 C 1420.230 681.465, 1418.349 708.078, 1421.535 724.868 C 1425.667 746.655, 1438.434 768.530, 1455.500 783.068 C 1460.734 787.527, 1472.516 796, 1473.482 796 C 1473.669 796, 1477.124 797.514, 1481.161 799.365 C 1485.197 801.216, 1489.378 803.036, 1490.451 803.411 C 1493.597 804.509, 1515.915 809.096, 1517.265 808.922 C 1517.944 808.834, 1535.966 808.816, 1557.313 808.882 L 1596.127 809 1611.642 824.236 C 1628.521 840.810, 1627.669 839.256, 1625.005 848.591 C 1623.050 855.442, 1626.656 864.468, 1633.323 869.408 C 1635.578 871.079, 1637.606 871.500, 1643.397 871.500 C 1649.765 871.500, 1651.088 871.165, 1654.255 868.752 C 1660.198 864.223, 1662.384 860.332, 1662.819 853.504 C 1663.156 848.202, 1662.841 846.818, 1660.357 842.706 C 1655.896 835.321, 1646.277 832.132, 1637 834.962 C 1634.741 835.651, 1632.789 834.028, 1616.741 818.112 L 1598.982 800.500 1551.741 800 C 1525.758 799.725, 1503.974 799.158, 1503.331 798.741 C 1502.688 798.324, 1498.346 796.876, 1493.682 795.525 C 1489.018 794.173, 1482.887 791.702, 1480.057 790.034 C 1477.227 788.365, 1474.543 787, 1474.092 787 C 1472.701 787, 1458.759 775.505, 1453.916 770.365 C 1437.495 752.939, 1428.003 729.127, 1428.001 705.358 C 1427.999 688.166, 1433.790 667.433, 1441.876 655.681 C 1443.594 653.183, 1445 650.864, 1445 650.528 C 1445 648.299, 1462.069 631.120, 1468.500 626.876 C 1478.656 620.174, 1491.823 614.417, 1503 611.793 C 1505.578 611.188, 1526.971 610.473, 1553.084 610.119 L 1598.668 609.500 1610.084 599.500 C 1633.314 579.151, 1632.086 579.994, 1636.040 581.673 C 1643.754 584.949, 1654.412 582.081, 1659.547 575.350 C 1665.324 567.776, 1663.431 554.393, 1655.779 548.711 C 1648.596 543.377, 1642.891 542.844, 1635 546.769 M 1665.500 597.066 C 1661.048 599.276, 1658.581 601.907, 1656.422 606.750 C 1655.053 609.820, 1654.682 610, 1649.723 610 L 1644.473 610 1630.549 623.951 L 1616.625 637.901 1565.063 638.203 L 1513.500 638.504 1505.091 641.740 C 1500.465 643.520, 1493.570 647.083, 1489.768 649.657 C 1482.938 654.281, 1471 666.364, 1471 668.653 C 1471 669.302, 1470.662 669.983, 1470.250 670.167 C 1468.413 670.983, 1463.846 682.283, 1462.031 690.500 C 1457.692 710.147, 1461.101 730.248, 1471.224 744.698 C 1475.366 750.611, 1485.925 762, 1487.265 762 C 1487.686 762, 1490.386 763.561, 1493.265 765.469 C 1496.144 767.378, 1502.100 770.179, 1506.500 771.696 L 1514.500 774.452 1565.048 774.761 L 1615.596 775.069 1629.534 789.034 L 1643.473 803 1648.987 803.027 C 1654.366 803.053, 1654.561 803.154, 1657 807.178 C 1660.728 813.329, 1667.067 817, 1673.957 817 C 1691.721 817, 1699.727 794.204, 1686.014 782.666 C 1682.407 779.630, 1677.785 778.574, 1670.974 779.228 C 1664.821 779.820, 1660.167 782.932, 1656.065 789.198 C 1651.022 796.901, 1649.923 796.455, 1633.557 780.057 L 1619.641 766.115 1568.571 765.768 L 1517.500 765.422 1509 762.540 C 1478.485 752.193, 1463.115 722.685, 1471.365 690.287 C 1477.182 667.444, 1497.629 650.201, 1522 647.585 C 1524.475 647.319, 1547.615 647.079, 1573.423 647.051 L 1620.345 647 1634.465 633 C 1646.518 621.050, 1649.039 619, 1651.684 619 C 1654.156 619, 1654.910 619.506, 1655.411 621.502 C 1655.973 623.741, 1659.769 628.086, 1664.451 631.851 C 1665.375 632.594, 1668.763 633.440, 1671.979 633.732 C 1682.781 634.711, 1691.186 628.220, 1692.615 617.793 C 1693.594 610.651, 1692.345 606.330, 1687.914 601.523 C 1681.931 595.032, 1673.124 593.280, 1665.500 597.066 M 1664.240 687.110 C 1659.703 689.356, 1656.264 693.367, 1655.081 697.791 L 1654.356 700.500 1578 700.756 C 1508.694 700.989, 1501.475 701.165, 1499.822 702.661 C 1497.723 704.560, 1497.469 707.069, 1499.200 708.800 C 1500.112 709.712, 1518.671 710, 1576.618 710 C 1618.538 710, 1653.548 710.273, 1654.418 710.607 C 1655.288 710.941, 1656 711.841, 1656 712.607 C 1656 713.373, 1657.758 715.758, 1659.908 717.908 C 1667.431 725.431, 1678.989 725.619, 1687.037 718.348 C 1691.226 714.563, 1693 710.127, 1692.972 703.500 C 1692.954 698.979, 1690.237 692.347, 1687.355 689.788 C 1681.717 684.782, 1671.367 683.583, 1664.240 687.110 M 726.500 979.102 C 717.132 979.924, 707.738 982.050, 703.270 984.361 C 701.526 985.262, 699.424 986, 698.599 986 C 694.418 986, 673 1002.340, 673 1005.530 C 673 1006.204, 672.354 1007.291, 671.565 1007.946 C 668.284 1010.669, 663.287 1022.551, 661.871 1031 C 658.913 1048.654, 659.714 1054.443, 667.243 1069.829 C 669.776 1075.005, 683.200 1089.025, 685.583 1088.984 C 686.088 1088.976, 690.775 1091.077, 696 1093.654 C 701.225 1096.232, 706.625 1098.766, 708 1099.287 C 709.375 1099.807, 711.281 1100.631, 712.236 1101.117 C 713.191 1101.603, 715.077 1102, 716.427 1102 C 717.777 1102, 719.129 1102.400, 719.432 1102.890 C 719.734 1103.379, 721.448 1104.012, 723.241 1104.296 C 725.033 1104.581, 728.300 1105.343, 730.500 1105.989 C 732.700 1106.636, 735.850 1107.409, 737.500 1107.708 C 739.150 1108.007, 741.132 1108.757, 741.904 1109.376 C 742.676 1109.994, 744.476 1110.551, 745.904 1110.613 C 748.215 1110.714, 750.062 1111.261, 757.500 1114.049 C 758.600 1114.461, 761.075 1115.341, 763 1116.005 C 776.402 1120.624, 788.186 1129.507, 792.721 1138.408 C 794.919 1142.723, 795.325 1144.873, 795.385 1152.500 C 795.455 1161.496, 793.038 1172, 790.898 1172 C 790.381 1172, 789.406 1173.237, 788.733 1174.750 C 787.273 1178.029, 784.339 1180.549, 777.699 1184.224 C 769.051 1189.009, 760.655 1190.771, 745.691 1190.941 C 738.258 1191.025, 731.943 1190.717, 731.658 1190.256 C 731.373 1189.795, 729.422 1189.303, 727.322 1189.161 C 725.222 1189.020, 723.076 1188.476, 722.552 1187.952 C 722.028 1187.428, 720.634 1187, 719.454 1187 C 716.867 1187, 711.679 1184.524, 709.983 1182.479 C 709.308 1181.666, 708.248 1181, 707.627 1181 C 707.007 1181, 703.479 1178.053, 699.788 1174.452 C 695.003 1169.783, 692.039 1165.774, 689.460 1160.484 C 687.470 1156.403, 686.063 1152.707, 686.333 1152.271 C 686.602 1151.835, 686.297 1150.758, 685.654 1149.879 C 684.593 1148.428, 683.751 1148.498, 676.548 1150.640 C 672.183 1151.938, 667.439 1153, 666.006 1153 C 664.573 1153, 662.973 1153.418, 662.450 1153.929 C 661.928 1154.439, 659.925 1155.002, 658 1155.179 C 655.196 1155.436, 654.433 1155.970, 654.165 1157.865 C 653.981 1159.166, 654.319 1160.719, 654.915 1161.315 C 655.512 1161.912, 656 1163.323, 656 1164.451 C 656 1165.580, 657.866 1170.064, 660.146 1174.415 C 664.558 1182.834, 676.429 1196.327, 683.201 1200.618 C 690.185 1205.044, 700.167 1210, 702.097 1210 C 703.158 1210, 704.921 1210.450, 706.014 1211 C 707.106 1211.550, 708.805 1212.395, 709.790 1212.877 C 710.774 1213.360, 713.924 1214.077, 716.789 1214.471 C 719.654 1214.865, 722.250 1215.595, 722.558 1216.094 C 723.276 1217.255, 767.703 1217.290, 768.420 1216.129 C 768.716 1215.650, 770.430 1214.976, 772.229 1214.631 C 778.643 1213.401, 789.577 1209.509, 794.294 1206.777 C 796.931 1205.250, 799.357 1204, 799.686 1204 C 800.663 1204, 811.153 1194.809, 814.967 1190.612 C 818.648 1186.561, 824 1176.703, 824 1173.975 C 824 1173.109, 824.404 1171.972, 824.898 1171.450 C 826.071 1170.208, 827.029 1163.635, 827.650 1152.557 C 828.705 1133.751, 820.218 1115.653, 805.841 1106.052 C 802.503 1103.824, 799.428 1102, 799.008 1102 C 798.589 1102, 797.692 1101.334, 797.017 1100.521 C 795.572 1098.779, 790.260 1096, 788.377 1096 C 787.653 1096, 785.458 1095.100, 783.500 1094 C 781.542 1092.900, 778.854 1092, 777.529 1092 C 776.203 1092, 774.840 1091.550, 774.500 1091 C 774.160 1090.450, 772.896 1089.986, 771.691 1089.968 C 770.486 1089.951, 768.626 1089.276, 767.559 1088.468 C 766.491 1087.661, 764.605 1087, 763.368 1087 C 762.130 1087, 760.840 1086.550, 760.500 1086 C 760.160 1085.450, 758.360 1085, 756.500 1085 C 754.640 1085, 752.871 1084.600, 752.568 1084.110 C 752.266 1083.621, 750.552 1082.978, 748.759 1082.682 C 743.594 1081.827, 739.662 1080.913, 737.500 1080.063 C 733.597 1078.529, 728.338 1077, 726.929 1076.989 C 726.143 1076.983, 721.453 1074.958, 716.507 1072.489 C 711.561 1070.020, 707.168 1068, 706.744 1068 C 705.349 1068, 696.114 1058.121, 694.387 1054.782 C 692.305 1050.755, 691.137 1033.652, 692.871 1032.580 C 693.492 1032.196, 694 1030.993, 694 1029.906 C 694 1028.819, 694.754 1026.708, 695.676 1025.215 C 698.160 1021.190, 706.231 1013, 707.712 1013 C 708.421 1013, 709 1012.660, 709 1012.244 C 709 1011.452, 714.775 1008.534, 716.500 1008.454 C 717.050 1008.428, 718.400 1007.930, 719.500 1007.346 C 723.517 1005.213, 739.072 1003.882, 747 1004.993 C 760.607 1006.900, 761.470 1007.070, 762.439 1008.039 C 762.968 1008.568, 764.141 1009, 765.046 1009 C 767.208 1009, 772.463 1011.649, 774.017 1013.521 C 774.692 1014.334, 775.792 1015, 776.460 1015 C 779.996 1015, 793 1033.734, 793 1038.829 C 793 1039.958, 793.379 1041.116, 793.842 1041.402 C 794.669 1041.914, 814.589 1037.530, 818.500 1035.976 C 819.600 1035.539, 821.323 1034.916, 822.330 1034.592 C 824.849 1033.779, 823.900 1029.777, 818.643 1019.040 C 814.517 1010.615, 806.475 1001.257, 798.010 995.030 C 793.549 991.748, 783.587 986.799, 778 985.089 C 775.525 984.331, 771.572 983.102, 769.215 982.356 C 766.858 981.610, 763.911 981, 762.665 981 C 761.419 981, 759.973 980.607, 759.450 980.127 C 758.144 978.926, 736.269 978.246, 726.500 979.102 M 1092.102 982 C 1091.714 982.275, 1090.640 984.126, 1089.716 986.112 C 1088.793 988.099, 1087.354 990.292, 1086.518 990.985 C 1085.683 991.678, 1085 992.717, 1085 993.294 C 1085 993.871, 1084.375 995.053, 1083.612 995.921 C 1082.848 996.790, 1080.999 999.866, 1079.503 1002.759 C 1078.006 1005.651, 1076.393 1008.257, 1075.918 1008.551 C 1075.442 1008.845, 1074.292 1010.753, 1073.362 1012.792 C 1072.432 1014.832, 1070.886 1017.400, 1069.928 1018.500 C 1068.969 1019.600, 1067.197 1022.415, 1065.989 1024.755 C 1064.781 1027.095, 1063.402 1029.252, 1062.923 1029.547 C 1062.445 1029.843, 1061.295 1031.753, 1060.367 1033.792 C 1059.439 1035.832, 1056.277 1041.170, 1053.340 1045.655 C 1050.403 1050.140, 1048 1054.232, 1048 1054.750 C 1048 1055.267, 1047.162 1056.448, 1046.139 1057.375 C 1045.115 1058.301, 1043.440 1060.958, 1042.418 1063.280 C 1041.395 1065.601, 1039.839 1068.175, 1038.960 1069 C 1038.081 1069.825, 1037.062 1071.307, 1036.695 1072.293 C 1035.675 1075.042, 1032.788 1072.955, 1029.798 1067.306 C 1028.398 1064.663, 1024.051 1057.325, 1020.138 1051 C 1016.225 1044.675, 1011.669 1037.025, 1010.015 1034 C 1007.514 1029.426, 1003.877 1023.506, 994.041 1008 C 993.518 1007.175, 991.627 1004.025, 989.840 1001 C 988.052 997.975, 985.894 994.347, 985.045 992.938 C 984.195 991.529, 982.375 988.495, 981 986.196 L 978.500 982.015 960.750 982.008 C 944.579 982.001, 940.844 982.550, 943.959 984.475 C 945.120 985.192, 954 998.312, 954 999.309 C 954 999.697, 956.475 1003.608, 959.500 1008 C 962.525 1012.392, 965 1016.232, 965 1016.533 C 965 1016.834, 965.829 1018.300, 966.841 1019.790 C 967.854 1021.281, 970.808 1025.875, 973.405 1030 C 981.989 1043.633, 996.350 1066.525, 1003.518 1078 C 1004.720 1079.925, 1007.721 1084.650, 1010.185 1088.500 C 1012.650 1092.350, 1015.866 1097.565, 1017.333 1100.088 L 1020 1104.676 1020 1159.171 C 1020 1189.144, 1020.186 1213.854, 1020.414 1214.083 C 1020.641 1214.313, 1027.616 1214.365, 1035.914 1214.200 L 1051 1213.900 1051 1157.844 L 1051 1101.789 1053.250 1098.911 C 1059.188 1091.316, 1060 1090.074, 1060 1088.592 C 1060 1087.716, 1060.343 1087, 1060.763 1087 C 1061.514 1087, 1062.433 1085.494, 1065.387 1079.420 C 1066.210 1077.727, 1067.608 1075.741, 1068.492 1075.007 C 1069.376 1074.273, 1070.954 1071.795, 1072 1069.500 C 1073.046 1067.205, 1074.598 1064.748, 1075.450 1064.041 C 1076.303 1063.334, 1077 1062.205, 1077 1061.533 C 1077 1060.860, 1077.889 1059.506, 1078.974 1058.523 C 1080.060 1057.540, 1081.247 1055.783, 1081.611 1054.618 C 1081.976 1053.453, 1083.562 1050.619, 1085.137 1048.320 C 1086.712 1046.021, 1088 1043.728, 1088 1043.225 C 1088 1042.722, 1088.900 1041.495, 1090 1040.500 C 1091.100 1039.505, 1092 1038.305, 1092 1037.835 C 1092 1037.364, 1093.575 1034.739, 1095.500 1032 C 1097.425 1029.261, 1099 1026.636, 1099 1026.165 C 1099 1025.695, 1099.900 1024.495, 1101 1023.500 C 1102.100 1022.505, 1103 1021.140, 1103 1020.467 C 1103 1019.795, 1103.664 1018.694, 1104.476 1018.020 C 1105.287 1017.346, 1107.088 1014.392, 1108.478 1011.455 C 1109.867 1008.519, 1111.481 1005.821, 1112.064 1005.461 C 1112.646 1005.100, 1113.557 1003.837, 1114.087 1002.653 C 1114.617 1001.469, 1116.052 999.087, 1117.276 997.360 C 1118.499 995.633, 1120.400 992.724, 1121.500 990.894 C 1122.600 989.064, 1124.278 986.314, 1125.230 984.783 C 1126.181 983.253, 1126.856 981.989, 1126.730 981.975 C 1123.553 981.626, 1092.598 981.649, 1092.102 982 M 1275.250 981.748 L 1259 982.050 1259 1098.025 L 1259 1214 1274.500 1214 L 1290 1214 1290 1122 C 1290 1045.601, 1290.228 1030, 1291.345 1030 C 1293.045 1030, 1295.263 1032.515, 1297.519 1037 C 1298.487 1038.925, 1299.554 1040.725, 1299.890 1041 C 1300.693 1041.658, 1307 1050.940, 1307 1051.464 C 1307 1051.687, 1318.432 1068.999, 1332.404 1089.935 C 1346.377 1110.871, 1357.625 1128, 1357.401 1128 C 1357.033 1128, 1359.061 1131.010, 1369.692 1146.240 C 1371.511 1148.847, 1373 1151.209, 1373 1151.490 C 1373 1151.771, 1382.402 1166.063, 1393.894 1183.250 L 1414.788 1214.500 1431.644 1214.207 L 1448.500 1213.913 1448.500 1097.957 L 1448.500 982 1433.250 982 L 1418 982 1417.985 1072.250 C 1417.976 1121.888, 1417.591 1163.097, 1417.129 1163.826 C 1415.769 1165.970, 1412.212 1161.866, 1402.977 1147.500 C 1398.380 1140.350, 1392.118 1130.747, 1389.060 1126.161 C 1386.002 1121.574, 1382.709 1116.286, 1381.742 1114.411 C 1380.775 1112.535, 1379.538 1111, 1378.992 1111 C 1378.446 1111, 1378 1110.558, 1378 1110.017 C 1378 1109.173, 1368.630 1094.497, 1366.137 1091.437 C 1365.660 1090.852, 1364.692 1089.277, 1363.986 1087.937 C 1363.279 1086.597, 1362.430 1085.275, 1362.100 1085 C 1361.770 1084.725, 1346.005 1061.213, 1327.066 1032.750 C 1308.128 1004.288, 1292.378 981.101, 1292.067 981.223 C 1291.755 981.346, 1284.188 981.582, 1275.250 981.748 M 1604.331 982.576 C 1603.817 983.920, 1604.639 1148.572, 1605.177 1152 C 1606.433 1159.997, 1612.318 1175.300, 1617.290 1183.495 C 1619.740 1187.535, 1630.246 1199, 1631.497 1199 C 1632.207 1199, 1634.196 1200.315, 1635.916 1201.921 C 1639.073 1204.871, 1648.385 1210, 1650.582 1210 C 1651.236 1210, 1653.053 1210.665, 1654.620 1211.478 C 1656.186 1212.290, 1659.830 1213.446, 1662.716 1214.045 C 1665.603 1214.644, 1668.225 1215.554, 1668.542 1216.067 C 1668.868 1216.595, 1677.971 1217, 1689.500 1217 C 1701.029 1217, 1710.132 1216.595, 1710.458 1216.067 C 1710.775 1215.554, 1713.593 1214.603, 1716.721 1213.954 C 1721.885 1212.882, 1726.528 1211.258, 1731.236 1208.878 C 1732.191 1208.395, 1733.481 1208, 1734.101 1208 C 1737.830 1208, 1760.611 1188.399, 1761.638 1184.308 C 1761.956 1183.038, 1762.618 1182, 1763.108 1182 C 1763.599 1182, 1764 1181.170, 1764 1180.155 C 1764 1179.140, 1764.900 1177.495, 1766 1176.500 C 1767.100 1175.505, 1768 1173.886, 1768 1172.904 C 1768 1171.922, 1768.450 1170.840, 1769 1170.500 C 1769.550 1170.160, 1770 1168.585, 1770 1167 C 1770 1165.415, 1770.450 1163.840, 1771 1163.500 C 1771.550 1163.160, 1772 1162.263, 1772 1161.506 C 1772 1160.749, 1772.513 1158.863, 1773.139 1157.315 C 1774.948 1152.846, 1775.025 1149.864, 1775.555 1063.750 C 1776.004 990.844, 1775.893 981.997, 1774.529 981.969 C 1773.688 981.952, 1766.813 981.923, 1759.250 981.906 L 1745.500 981.875 1744.871 1059.687 C 1744.180 1145.131, 1743.883 1149.686, 1738.171 1162.152 C 1733.655 1172.007, 1715.143 1187, 1707.489 1187 C 1706.048 1187, 1703.932 1187.501, 1702.786 1188.114 C 1700.087 1189.559, 1677.879 1189.541, 1675.173 1188.092 C 1674.050 1187.492, 1671.991 1187, 1670.596 1187 C 1669.202 1187, 1666.458 1186.100, 1664.500 1185 C 1662.542 1183.900, 1660.485 1183, 1659.929 1183 C 1657.932 1183, 1644.441 1168.285, 1641.706 1163.124 C 1635.598 1151.597, 1635.207 1145.276, 1635.094 1056.250 C 1635.042 1015.413, 1634.662 981.991, 1634.250 981.981 C 1614.426 981.474, 1604.679 981.669, 1604.331 982.576 M 1931.417 981.917 C 1931.187 982.146, 1931 1034.458, 1931 1098.167 L 1931 1214 1946.491 1214 L 1961.982 1214 1962.241 1161.750 L 1962.500 1109.500 1978.893 1109.225 C 1997.291 1108.915, 1997.209 1108.889, 2000.958 1116.346 C 2002.107 1118.631, 2003.916 1121.850, 2004.979 1123.500 C 2006.041 1125.150, 2007.686 1128.075, 2008.633 1130 C 2009.580 1131.925, 2011.139 1134.643, 2012.096 1136.040 C 2013.054 1137.437, 2015.287 1141.262, 2017.059 1144.540 C 2018.831 1147.818, 2020.828 1151.175, 2021.498 1152 C 2022.168 1152.825, 2024.227 1156.425, 2026.073 1160 C 2029.241 1166.133, 2031.150 1169.450, 2035.568 1176.500 C 2036.602 1178.150, 2037.460 1179.725, 2037.476 1180 C 2037.491 1180.275, 2038.515 1181.919, 2039.752 1183.654 C 2040.988 1185.389, 2042 1187.132, 2042 1187.528 C 2042 1187.923, 2043.923 1191.454, 2046.273 1195.373 C 2048.623 1199.293, 2051.116 1203.625, 2051.813 1205 C 2053.918 1209.156, 2055.713 1212.113, 2056.774 1213.174 C 2057.750 1214.150, 2091.909 1214.424, 2092.870 1213.463 C 2093.118 1213.215, 2092.661 1212.222, 2091.854 1211.256 C 2091.047 1210.290, 2089.859 1208.263, 2089.215 1206.750 C 2088.570 1205.237, 2087.583 1204, 2087.021 1204 C 2086.460 1204, 2086 1203.565, 2086 1203.034 C 2086 1202.502, 2084.313 1199.387, 2082.250 1196.111 C 2080.188 1192.835, 2077.150 1187.878, 2075.500 1185.096 C 2073.850 1182.314, 2072.162 1180.029, 2071.750 1180.019 C 2071.338 1180.008, 2071 1179.607, 2071 1179.126 C 2071 1177.872, 2063.335 1164.979, 2056.597 1154.898 C 2055 1152.509, 2052.627 1148.517, 2051.324 1146.027 C 2050.021 1143.537, 2047.052 1138.721, 2044.727 1135.325 C 2040.914 1129.754, 2038.036 1125.213, 2031.293 1114.128 C 2027.829 1108.432, 2028.231 1107.489, 2034.750 1106.037 C 2056.107 1101.280, 2075.136 1081.987, 2077.692 1062.500 C 2077.980 1060.300, 2078.613 1058.009, 2079.098 1057.410 C 2080.028 1056.260, 2079.552 1035.702, 2078.558 1034.094 C 2078.239 1033.577, 2077.538 1030.839, 2077.002 1028.008 C 2074.158 1013.013, 2061.222 996.636, 2046.730 989.686 C 2038.862 985.912, 2033.739 984.370, 2024.500 982.994 C 2018.569 982.111, 1932.222 981.112, 1931.417 981.917 M 2290.121 984.229 C 2289.656 985.478, 2288.666 988.300, 2287.921 990.500 C 2287.176 992.700, 2285.989 995.388, 2285.283 996.473 C 2284.577 997.557, 2284 999.443, 2284 1000.663 C 2284 1001.884, 2283.550 1003.160, 2283 1003.500 C 2282.450 1003.840, 2282 1004.978, 2282 1006.029 C 2282 1007.079, 2281.100 1009.542, 2280 1011.500 C 2278.900 1013.458, 2278 1015.728, 2278 1016.544 C 2278 1017.360, 2277.605 1018.809, 2277.123 1019.764 C 2276.640 1020.719, 2275.685 1023.300, 2274.999 1025.500 C 2274.314 1027.700, 2272.751 1031.750, 2271.526 1034.500 C 2270.300 1037.250, 2268.733 1041.525, 2268.043 1044 C 2267.353 1046.475, 2265.936 1050.230, 2264.894 1052.345 C 2263.852 1054.459, 2263 1057.020, 2263 1058.035 C 2263 1059.051, 2262.550 1060.160, 2262 1060.500 C 2261.450 1060.840, 2261 1061.935, 2261 1062.935 C 2261 1063.934, 2259.860 1067.395, 2258.466 1070.626 C 2257.073 1073.857, 2255.549 1077.400, 2255.080 1078.500 C 2254.611 1079.600, 2253.679 1082.525, 2253.008 1085 C 2252.337 1087.475, 2250.936 1091.230, 2249.894 1093.345 C 2248.852 1095.459, 2247.986 1097.934, 2247.968 1098.845 C 2247.951 1099.755, 2247.276 1101.374, 2246.468 1102.441 C 2245.661 1103.509, 2245 1105.395, 2245 1106.632 C 2245 1107.870, 2244.550 1109.160, 2244 1109.500 C 2243.450 1109.840, 2243 1110.788, 2243 1111.607 C 2243 1112.426, 2242.100 1114.959, 2241 1117.236 C 2239.900 1119.513, 2239 1121.972, 2239 1122.701 C 2239 1123.431, 2238.610 1124.809, 2238.134 1125.764 C 2237.658 1126.719, 2236.716 1129.075, 2236.041 1131 C 2235.366 1132.925, 2233.918 1136.750, 2232.823 1139.500 C 2231.727 1142.250, 2230.607 1145.400, 2230.332 1146.500 C 2230.058 1147.600, 2229.421 1149.513, 2228.917 1150.750 C 2228.412 1151.987, 2227.497 1154.237, 2226.883 1155.750 C 2226.269 1157.263, 2225.369 1159.281, 2224.883 1160.236 C 2224.397 1161.191, 2224 1162.852, 2224 1163.927 C 2224 1165.002, 2223.550 1166.160, 2223 1166.500 C 2222.450 1166.840, 2222 1167.978, 2222 1169.028 C 2222 1170.079, 2220.999 1172.859, 2219.775 1175.207 C 2218.552 1177.554, 2217.414 1180.371, 2217.247 1181.466 C 2217.080 1182.561, 2216.506 1183.894, 2215.971 1184.429 C 2215.437 1184.963, 2215 1186.350, 2215 1187.512 C 2215 1188.674, 2214.100 1191.487, 2213 1193.764 C 2211.900 1196.041, 2211 1198.574, 2211 1199.393 C 2211 1200.212, 2210.550 1201.160, 2210 1201.500 C 2209.450 1201.840, 2208.986 1203.104, 2208.968 1204.309 C 2208.951 1205.514, 2208.276 1207.374, 2207.468 1208.441 C 2205.787 1210.663, 2205.533 1213.675, 2206.985 1214.167 C 2207.527 1214.350, 2214.614 1214.366, 2222.735 1214.202 L 2237.500 1213.904 2238.750 1211.253 C 2239.438 1209.794, 2240 1207.818, 2240 1206.860 C 2240 1205.902, 2240.450 1204.840, 2241 1204.500 C 2241.550 1204.160, 2242 1203.024, 2242 1201.975 C 2242 1200.322, 2243.459 1196.274, 2245.954 1191 C 2246.344 1190.175, 2247.288 1187.362, 2248.050 1184.750 C 2248.813 1182.138, 2249.788 1180, 2250.218 1180 C 2250.648 1180, 2251 1178.677, 2251 1177.059 C 2251 1175.441, 2251.450 1173.840, 2252 1173.500 C 2252.550 1173.160, 2253 1172.002, 2253 1170.927 C 2253 1169.852, 2253.423 1168.191, 2253.940 1167.236 C 2254.456 1166.281, 2255.141 1164.259, 2255.461 1162.741 L 2256.042 1159.983 2310.258 1160.241 C 2363.601 1160.496, 2364.478 1160.532, 2364.788 1162.500 C 2364.961 1163.600, 2365.526 1165.400, 2366.042 1166.500 C 2367.142 1168.842, 2371.584 1181.177, 2376.666 1196 C 2378.646 1201.775, 2380.613 1206.950, 2381.037 1207.500 C 2381.461 1208.050, 2381.964 1209.625, 2382.154 1211 L 2382.500 1213.500 2398.867 1213.775 C 2414.218 1214.034, 2415.186 1213.941, 2414.475 1212.275 C 2414.058 1211.299, 2413.504 1209.257, 2413.243 1207.738 C 2412.983 1206.219, 2412.371 1204.729, 2411.885 1204.429 C 2411.398 1204.128, 2411 1203.019, 2411 1201.965 C 2411 1200.911, 2410.102 1198.575, 2409.004 1196.774 C 2407.906 1194.973, 2407.006 1192.728, 2407.004 1191.784 C 2407.002 1190.840, 2406.363 1188.590, 2405.583 1186.784 C 2404.804 1184.978, 2403.454 1181.857, 2402.583 1179.849 C 2401.713 1177.841, 2401 1175.884, 2401 1175.500 C 2401 1175.116, 2400.392 1173.384, 2399.649 1171.651 C 2398.907 1169.918, 2397.381 1165.800, 2396.258 1162.500 C 2392.473 1151.372, 2391.782 1149.509, 2390.389 1146.669 C 2389.625 1145.112, 2389 1143.284, 2389 1142.607 C 2389 1141.930, 2388.100 1139.513, 2387 1137.236 C 2385.900 1134.959, 2385 1132.619, 2385 1132.035 C 2385 1131.451, 2384.592 1130.191, 2384.092 1129.236 C 2383.593 1128.281, 2382.494 1125.250, 2381.649 1122.500 C 2380.805 1119.750, 2378.738 1114.191, 2377.057 1110.146 C 2375.376 1106.102, 2374 1102.260, 2374 1101.608 C 2374 1100.956, 2373.100 1098.658, 2372 1096.500 C 2370.900 1094.342, 2370 1091.799, 2370 1090.848 C 2370 1089.896, 2369.602 1088.872, 2369.115 1088.571 C 2368.629 1088.271, 2368.004 1086.781, 2367.728 1085.262 C 2367.452 1083.743, 2366.228 1080.025, 2365.009 1077 C 2362.707 1071.289, 2358.132 1059.074, 2356.020 1053 C 2355.350 1051.075, 2354.172 1048.082, 2353.401 1046.349 C 2352.631 1044.616, 2352 1042.505, 2352 1041.658 C 2352 1040.811, 2351.550 1039.840, 2351 1039.500 C 2350.450 1039.160, 2350.001 1038.121, 2350.003 1037.191 C 2350.004 1036.261, 2349.150 1033.700, 2348.103 1031.500 C 2347.057 1029.300, 2345.668 1025.700, 2345.017 1023.500 C 2344.366 1021.300, 2342.333 1015.675, 2340.500 1011 C 2338.666 1006.325, 2336.172 999.575, 2334.956 996 C 2333.741 992.425, 2332.397 989.050, 2331.969 988.500 C 2331.542 987.950, 2331.036 986.375, 2330.846 985 L 2330.500 982.500 2310.733 982.229 C 2290.981 981.958, 2290.966 981.959, 2290.121 984.229 M 1986.750 1008.766 L 1962 1009.035 1962 1046.998 L 1962 1084.962 1964.478 1085.584 C 1965.841 1085.926, 1977.878 1085.987, 1991.228 1085.721 C 2013.999 1085.265, 2022.791 1084.274, 2025.450 1081.862 C 2025.973 1081.388, 2027.253 1081, 2028.296 1081 C 2030.910 1081, 2035.644 1077.589, 2041.084 1071.786 C 2052.255 1059.869, 2052.700 1036.036, 2042.009 1022.306 C 2039.312 1018.843, 2031.176 1013, 2029.050 1013 C 2027.988 1013, 2026.840 1012.550, 2026.500 1012 C 2026.160 1011.450, 2024.874 1011, 2023.641 1011 C 2022.408 1011, 2020.973 1010.608, 2020.450 1010.128 C 2018.918 1008.722, 2012.964 1008.481, 1986.750 1008.766 M 2307.432 1018.511 C 2307.070 1020.442, 2306.374 1022.269, 2305.887 1022.570 C 2305.399 1022.871, 2305 1024.126, 2305 1025.359 C 2305 1026.592, 2304.642 1028.027, 2304.204 1028.550 C 2303.766 1029.072, 2302.837 1031.300, 2302.138 1033.500 C 2301.439 1035.700, 2300.501 1038.400, 2300.054 1039.500 C 2297.694 1045.297, 2295.996 1049.913, 2294.906 1053.500 C 2294.238 1055.700, 2292.860 1059.408, 2291.845 1061.739 C 2290.830 1064.071, 2290 1066.632, 2290 1067.430 C 2290 1068.229, 2289.550 1069.160, 2289 1069.500 C 2288.450 1069.840, 2288 1071.190, 2288 1072.500 C 2288 1073.810, 2287.550 1075.160, 2287 1075.500 C 2286.450 1075.840, 2286 1076.976, 2286 1078.025 C 2286 1079.074, 2285.263 1081.635, 2284.361 1083.716 C 2281.953 1089.277, 2281.269 1091.068, 2279.862 1095.500 C 2279.163 1097.700, 2278.234 1099.928, 2277.796 1100.450 C 2277.358 1100.973, 2277 1102.408, 2277 1103.641 C 2277 1104.874, 2276.550 1106.160, 2276 1106.500 C 2275.450 1106.840, 2275 1108.126, 2275 1109.359 C 2275 1110.592, 2274.563 1112.037, 2274.029 1112.571 C 2273.494 1113.106, 2272.919 1114.433, 2272.750 1115.521 C 2272.581 1116.610, 2272.161 1117.950, 2271.817 1118.500 C 2270.108 1121.236, 2267.110 1131.510, 2267.815 1132.215 C 2268.259 1132.659, 2287.495 1132.905, 2310.561 1132.761 L 2352.500 1132.500 2352.177 1128.515 C 2352 1126.323, 2351.497 1124.073, 2351.060 1123.515 C 2350.623 1122.957, 2349.012 1118.772, 2347.481 1114.215 C 2345.950 1109.659, 2344.315 1105.695, 2343.848 1105.406 C 2343.382 1105.118, 2343 1104.002, 2343 1102.927 C 2343 1101.852, 2342.603 1100.191, 2342.118 1099.236 C 2341.633 1098.281, 2340.332 1094.800, 2339.227 1091.500 C 2335.530 1080.463, 2332.088 1071.068, 2330.897 1068.764 C 2330.404 1067.809, 2330 1066.148, 2330 1065.073 C 2330 1063.998, 2329.550 1062.840, 2329 1062.500 C 2328.450 1062.160, 2328 1060.874, 2328 1059.641 C 2328 1058.408, 2327.592 1056.972, 2327.093 1056.450 C 2326.594 1055.928, 2325.705 1053.925, 2325.118 1052 C 2323.066 1045.272, 2318.214 1031.881, 2317.610 1031.276 C 2317.274 1030.941, 2317 1029.643, 2317 1028.392 C 2317 1027.141, 2316.550 1025.840, 2316 1025.500 C 2315.450 1025.160, 2315 1024.078, 2315 1023.095 C 2315 1019.916, 2311.946 1015, 2309.972 1015 C 2308.612 1015, 2307.908 1015.974, 2307.432 1018.511 M 1055.324 1283.952 C 1045.674 1286.534, 1042.482 1288.329, 1036.323 1294.638 C 1030.360 1300.745, 1029.129 1303.979, 1028.302 1315.707 C 1027.772 1323.230, 1027.949 1324.375, 1030.423 1329.431 C 1033.225 1335.160, 1038.622 1340.550, 1044.239 1343.229 C 1052.867 1347.344, 1057.085 1348.905, 1064 1350.541 C 1070.521 1352.084, 1079.802 1355.144, 1089.250 1358.867 C 1090.763 1359.463, 1092 1360.305, 1092 1360.738 C 1092 1361.171, 1093.011 1361.970, 1094.246 1362.513 C 1097.491 1363.940, 1100.868 1371.546, 1100.797 1377.272 C 1100.764 1379.897, 1100.347 1382.286, 1099.869 1382.581 C 1099.391 1382.876, 1099 1383.903, 1099 1384.863 C 1099 1387.024, 1093.678 1392.179, 1089 1394.549 C 1082.161 1398.014, 1063.516 1397.387, 1055.873 1393.434 C 1051.313 1391.076, 1044.246 1383.210, 1042.441 1378.484 C 1040.960 1374.608, 1040.409 1374.056, 1038.606 1374.644 C 1037.448 1375.023, 1033.800 1375.836, 1030.500 1376.451 C 1024.999 1377.477, 1024.523 1377.772, 1024.775 1379.991 C 1025.723 1388.350, 1035.707 1400.560, 1045 1404.727 C 1048.025 1406.084, 1052.075 1407.933, 1054 1408.837 C 1059.344 1411.346, 1086.802 1411.220, 1093.025 1408.658 C 1105.776 1403.409, 1110.870 1399.342, 1114.422 1391.576 C 1119.535 1380.398, 1119.700 1370.326, 1114.925 1360.884 C 1112.467 1356.024, 1108.031 1350.863, 1106.909 1351.556 C 1106.409 1351.865, 1106 1351.669, 1106 1351.121 C 1106 1349.167, 1091.265 1343.076, 1076.500 1338.925 C 1060.031 1334.296, 1053.955 1331.680, 1049.625 1327.356 C 1046.045 1323.781, 1045 1321.076, 1045 1315.385 C 1045 1304.863, 1053.187 1297.856, 1067.152 1296.425 C 1080.777 1295.029, 1092.143 1300.144, 1097.264 1309.974 C 1098.832 1312.985, 1100.290 1315.623, 1100.503 1315.837 C 1100.717 1316.050, 1103.279 1315.632, 1106.196 1314.907 C 1113.014 1313.211, 1112.732 1313.271, 1114.579 1313.125 C 1115.828 1313.026, 1116.012 1312.318, 1115.457 1309.750 C 1114.296 1304.370, 1111.493 1299.779, 1106.042 1294.328 C 1101.027 1289.313, 1097.013 1287.365, 1083 1283.146 C 1077.708 1281.552, 1062.655 1281.991, 1055.324 1283.952 M 1234.500 1283.626 C 1214.149 1288.058, 1198.243 1302.239, 1190.799 1322.585 C 1187.640 1331.216, 1187.539 1331.978, 1187.600 1346.500 C 1187.658 1360.109, 1187.916 1362.235, 1190.380 1369.426 C 1191.873 1373.785, 1194.761 1380.066, 1196.797 1383.383 C 1200.835 1389.960, 1210.389 1400, 1212.610 1400 C 1213.375 1400, 1214 1400.417, 1214 1400.927 C 1214 1402.172, 1223.741 1406.560, 1232.228 1409.138 C 1238.149 1410.936, 1240.953 1411.167, 1252.305 1410.787 C 1264.294 1410.386, 1266.277 1410.043, 1274 1407.034 C 1278.675 1405.213, 1284.628 1402.178, 1287.230 1400.291 C 1293.287 1395.896, 1302.369 1385.870, 1304.562 1381.156 C 1305.498 1379.145, 1307.079 1375.780, 1308.076 1373.678 C 1311.133 1367.231, 1312.419 1359.058, 1312.431 1346 C 1312.444 1332.030, 1311.207 1326.446, 1305.402 1314.284 C 1296.095 1294.786, 1275.423 1282.552, 1251.239 1282.230 C 1245.728 1282.157, 1238.461 1282.763, 1234.500 1283.626 M 1979 1283.507 C 1971.172 1285.116, 1965.296 1287.556, 1957.977 1292.238 C 1952.446 1295.777, 1944.837 1302.966, 1942.674 1306.697 C 1934.892 1320.121, 1932.254 1327.964, 1931.391 1340.234 C 1930.730 1349.644, 1932.100 1364.432, 1934.010 1368.500 C 1934.526 1369.600, 1935.903 1373.116, 1937.070 1376.313 C 1940.573 1385.913, 1953.862 1400.215, 1963 1404.220 C 1967.367 1406.134, 1972.269 1408.121, 1972.723 1408.160 C 1972.846 1408.171, 1975.055 1408.814, 1977.632 1409.590 C 1980.527 1410.461, 1986.854 1411, 1994.188 1411 C 2004.576 1411, 2007.146 1410.641, 2014.779 1408.123 C 2019.576 1406.541, 2026.202 1403.450, 2029.504 1401.254 C 2035.936 1396.978, 2044.999 1388.251, 2044.999 1386.333 C 2045 1385.692, 2045.338 1385.017, 2045.750 1384.833 C 2047.134 1384.218, 2050.976 1376.296, 2053.737 1368.364 C 2056.229 1361.204, 2056.469 1359.247, 2056.424 1346.500 C 2056.368 1331.036, 2054.851 1324.424, 2048.625 1312.527 C 2041.406 1298.731, 2024.095 1286.023, 2009.407 1283.739 C 2008.358 1283.576, 2007.050 1283.184, 2006.500 1282.869 C 2004.545 1281.749, 1985.395 1282.193, 1979 1283.507 M 2342.825 1284.469 C 2339.154 1285.720, 2334.554 1287.730, 2332.604 1288.936 C 2324.622 1293.869, 2318.412 1304.027, 2317.473 1313.688 C 2316.593 1322.752, 2321.467 1335.889, 2326.575 1338.216 C 2327.909 1338.824, 2329 1339.690, 2329 1340.141 C 2329 1340.871, 2340.972 1347.028, 2343.500 1347.598 C 2347.583 1348.519, 2369.562 1355.227, 2374 1356.906 C 2377.025 1358.051, 2381.601 1360.794, 2384.169 1363.002 C 2387.906 1366.216, 2389.041 1367.964, 2389.853 1371.759 C 2392.221 1382.820, 2386.477 1392.255, 2375.399 1395.499 C 2368.767 1397.441, 2355.520 1397.120, 2348.595 1394.849 C 2342.650 1392.900, 2334.363 1384.790, 2332.258 1378.862 C 2330.653 1374.339, 2330.283 1373.967, 2328 1374.578 C 2326.625 1374.945, 2323.025 1375.758, 2320 1376.384 C 2314.858 1377.448, 2314.512 1377.702, 2314.691 1380.284 C 2315.023 1385.065, 2319.277 1392.290, 2325.270 1398.250 C 2328.449 1401.412, 2331.432 1404, 2331.898 1404 C 2332.364 1404, 2334.940 1404.988, 2337.623 1406.195 C 2340.305 1407.403, 2342.950 1408.515, 2343.500 1408.666 C 2350.769 1410.663, 2355.922 1411.141, 2366.341 1410.787 C 2376.863 1410.430, 2379.442 1409.988, 2385.500 1407.507 C 2397.261 1402.689, 2407 1391.196, 2407 1382.134 C 2407 1380.960, 2407.450 1380, 2408 1380 C 2410.540 1380, 2408.216 1368.265, 2404.066 1360.129 C 2401.782 1355.653, 2392.061 1347.319, 2388 1346.355 C 2386.625 1346.029, 2384.509 1345.144, 2383.297 1344.389 C 2382.086 1343.634, 2376.236 1341.644, 2370.297 1339.966 C 2351.852 1334.756, 2350.634 1334.359, 2345.559 1331.897 C 2342.841 1330.579, 2339.257 1327.791, 2337.594 1325.701 C 2332.075 1318.766, 2334.174 1307.521, 2342.188 1301.097 C 2347.537 1296.809, 2360.465 1294.887, 2369.666 1297.011 C 2378.114 1298.961, 2387.424 1306.905, 2388.698 1313.250 C 2389.002 1314.763, 2389.916 1316, 2390.731 1316 C 2393.189 1316, 2404.435 1312.908, 2405.408 1311.965 C 2405.947 1311.442, 2405.016 1308.444, 2403.116 1304.584 C 2396.030 1290.191, 2380.326 1282.165, 2359.288 1282.185 C 2351.746 1282.192, 2347.968 1282.716, 2342.825 1284.469 M 695.524 1285.216 C 695.282 1285.922, 693.879 1289.875, 692.407 1294 C 690.934 1298.125, 688.469 1305.035, 686.928 1309.356 C 685.388 1313.676, 683.467 1318.626, 682.660 1320.356 C 681.852 1322.085, 680.274 1326.503, 679.152 1330.174 C 678.030 1333.844, 676.643 1337.669, 676.070 1338.674 C 675.497 1339.678, 673.931 1343.650, 672.590 1347.500 C 667.898 1360.967, 664.021 1371.517, 663.035 1373.500 C 662.488 1374.600, 660.730 1379.325, 659.128 1384 C 657.526 1388.675, 654.817 1396.321, 653.108 1400.992 C 651.398 1405.662, 650 1409.600, 650 1409.742 C 650 1409.884, 653.938 1409.996, 658.750 1409.991 L 667.500 1409.981 669.846 1402.741 C 671.137 1398.758, 673.416 1392.125, 674.912 1388 L 677.632 1380.500 706.540 1380.500 L 735.449 1380.500 738.330 1388 C 739.914 1392.125, 741.352 1396.232, 741.524 1397.127 C 741.697 1398.021, 742.774 1400.809, 743.919 1403.322 C 745.063 1405.834, 746 1408.365, 746 1408.945 C 746 1409.602, 749.205 1410, 754.500 1410 C 759.175 1410, 763 1409.756, 763 1409.458 C 763 1408.777, 757.677 1393.725, 750.991 1375.500 C 748.166 1367.800, 745.393 1360.150, 744.829 1358.500 C 744.264 1356.850, 743.183 1354.106, 742.426 1352.402 C 741.669 1350.697, 739.711 1345.522, 738.075 1340.902 C 732.241 1324.429, 724.203 1302.679, 722.036 1297.500 C 721.345 1295.850, 720.042 1292.250, 719.140 1289.500 L 717.500 1284.500 706.732 1284.216 C 698.656 1284.003, 695.853 1284.253, 695.524 1285.216 M 836 1347 L 836 1410 844.500 1410 L 853 1410 853 1347 L 853 1284 844.500 1284 L 836 1284 836 1347 M 1391 1347 L 1391 1410 1421 1410 L 1451 1410 1451 1402.500 L 1451 1395 1429.500 1395 L 1408 1395 1408 1339.500 L 1408 1284 1399.500 1284 L 1391 1284 1391 1347 M 1521.250 1331.750 C 1521.492 1365.685, 1521.941 1380.543, 1522.803 1383.106 C 1525.119 1390, 1531.558 1398.601, 1537.151 1402.276 C 1548.088 1409.460, 1551.926 1410.500, 1567.500 1410.499 C 1580.100 1410.498, 1581.921 1410.273, 1585.710 1408.249 C 1588.026 1407.012, 1590.430 1406, 1591.052 1406 C 1592.167 1406, 1594.979 1404.039, 1601.287 1398.863 C 1603.054 1397.413, 1606.300 1392.725, 1608.500 1388.446 L 1612.500 1380.665 1612.795 1332.332 L 1613.090 1284 1604.795 1284 L 1596.500 1283.999 1596.794 1323.250 C 1597.138 1369.215, 1596.549 1376.094, 1591.639 1383.488 C 1585.712 1392.416, 1578.602 1395.929, 1566.365 1395.976 C 1557.097 1396.012, 1550.633 1393.525, 1545.831 1388.076 C 1543.614 1385.559, 1541.196 1382.336, 1540.459 1380.914 C 1537.690 1375.573, 1536.915 1361.698, 1537.208 1322.750 L 1537.500 1283.999 1529.205 1284 L 1520.909 1284 1521.250 1331.750 M 1683 1291.500 L 1683 1299 1698.992 1299 L 1714.983 1299 1715.242 1354.250 L 1715.500 1409.500 1723.500 1409.500 L 1731.500 1409.500 1731.758 1354.250 L 1732.017 1299 1748.008 1299 L 1764 1299 1764 1291.500 L 1764 1284 1723.500 1284 L 1683 1284 1683 1291.500 M 1836 1347 L 1836 1410 1844.500 1410 L 1853 1410 1853 1347 L 1853 1284 1844.500 1284 L 1836 1284 1836 1347 M 2135 1347 L 2135 1410 2143.491 1410 L 2151.982 1410 2152.241 1359.750 L 2152.500 1309.500 2157.240 1316.500 C 2159.846 1320.350, 2170.532 1336.550, 2180.987 1352.500 C 2191.441 1368.450, 2200.445 1382.044, 2200.997 1382.708 C 2201.549 1383.372, 2202 1384.179, 2202 1384.500 C 2202 1384.821, 2202.476 1385.628, 2203.057 1386.292 C 2203.638 1386.956, 2207.370 1392.450, 2211.350 1398.500 L 2218.585 1409.500 2227.793 1409.788 L 2237 1410.075 2237 1347.038 L 2237 1284 2228.500 1284 L 2220 1284 2220 1333.500 C 2220 1360.725, 2219.619 1383, 2219.153 1383 C 2218.687 1383, 2217.899 1382.133, 2217.403 1381.074 C 2216.906 1380.014, 2202.325 1357.758, 2185 1331.615 L 2153.500 1284.082 2144.250 1284.041 L 2135 1284 2135 1347 M 1239.758 1298.575 C 1239.442 1298.891, 1238.580 1299.273, 1237.842 1299.424 C 1233.410 1300.329, 1224.600 1304.502, 1221.402 1307.212 C 1209.441 1317.347, 1203.895 1329.753, 1203.926 1346.310 C 1203.965 1367.186, 1212.411 1382.451, 1228.257 1390.283 C 1247.027 1399.559, 1268.739 1396.336, 1282.762 1382.193 C 1291.732 1373.147, 1295.957 1361.788, 1295.985 1346.644 C 1296.013 1331.912, 1291.049 1319.276, 1281.519 1309.822 C 1275.961 1304.309, 1273.929 1303.253, 1260.929 1299.132 C 1257.273 1297.973, 1240.794 1297.539, 1239.758 1298.575 M 1979.887 1299.917 C 1966.780 1304.360, 1958.621 1311.139, 1953.308 1322 C 1949.246 1330.305, 1947.867 1337.274, 1948.090 1348.370 C 1948.362 1361.949, 1952.363 1372.738, 1960.468 1381.753 C 1970.849 1393.299, 1990.969 1398.513, 2007 1393.812 C 2028.836 1387.407, 2041.021 1368.673, 2039.745 1343.466 C 2039.324 1335.147, 2038.686 1332.106, 2036.010 1325.678 C 2034.235 1321.414, 2032.239 1317.379, 2031.574 1316.712 C 2030.910 1316.046, 2029.546 1314.244, 2028.542 1312.710 C 2026.113 1308.995, 2017.120 1303.125, 2010.139 1300.696 C 2001.877 1297.821, 1987.186 1297.443, 1979.887 1299.917 M 705.703 1301.734 C 705.464 1302.155, 704.248 1305.650, 703.001 1309.500 C 701.754 1313.350, 700.412 1316.950, 700.019 1317.500 C 699.626 1318.050, 698.066 1322.550, 696.552 1327.500 C 695.038 1332.450, 693.440 1336.950, 693.002 1337.500 C 692.563 1338.050, 691.531 1340.750, 690.709 1343.500 C 689.887 1346.250, 688.041 1351.591, 686.607 1355.369 C 685.173 1359.147, 684 1362.860, 684 1363.619 C 684 1364.752, 688.004 1365, 706.333 1365 C 718.617 1365, 728.889 1364.778, 729.160 1364.506 C 729.688 1363.979, 725.998 1352.065, 723.653 1346.721 C 722.875 1344.950, 721.258 1340.575, 720.059 1337 C 718.860 1333.425, 717.476 1329.600, 716.984 1328.500 C 716.492 1327.400, 714.909 1322.900, 713.466 1318.500 C 712.023 1314.100, 710.203 1309.082, 709.421 1307.349 C 708.640 1305.616, 708 1303.730, 708 1303.158 C 708 1301.811, 706.269 1300.738, 705.703 1301.734" stroke="none" fill="#000000" fill-rule="evenodd"/>
</svg>