<svg width="400" height="240" viewBox="0 0 400 240" fill="none" xmlns="http://www.w3.org/2000/svg">
  <!-- Background gradient -->
  <defs>
    <linearGradient id="starterGradient" x1="0%" y1="0%" x2="100%" y2="100%">
      <stop offset="0%" style="stop-color:#E0F2FE;stop-opacity:1" />
      <stop offset="100%" style="stop-color:#BAE6FD;stop-opacity:1" />
    </linearGradient>
    <linearGradient id="iconGradient" x1="0%" y1="0%" x2="100%" y2="100%">
      <stop offset="0%" style="stop-color:#0EA5E9;stop-opacity:1" />
      <stop offset="100%" style="stop-color:#0284C7;stop-opacity:1" />
    </linearGradient>
  </defs>

  <!-- Background -->
  <rect width="400" height="240" fill="url(#starterGradient)" rx="8"/>

  <!-- Simple automation icons representing small business solutions -->
  <g opacity="0.8">
    <!-- Gear icon (automation) -->
    <circle cx="80" cy="60" r="20" fill="url(#iconGradient)" opacity="0.3"/>
    <path d="M80 45 L85 50 L80 55 L75 50 Z" fill="url(#iconGradient)" opacity="0.6"/>

    <!-- Arrow flow (simple process) -->
    <path d="M120 60 L180 60" stroke="url(#iconGradient)" stroke-width="3" opacity="0.4"/>
    <path d="M175 55 L180 60 L175 65" stroke="url(#iconGradient)" stroke-width="3" fill="none" opacity="0.4"/>

    <!-- Document icon (basic integration) -->
    <rect x="200" y="45" width="20" height="30" rx="2" fill="url(#iconGradient)" opacity="0.3"/>
    <rect x="205" y="52" width="10" height="2" fill="white" opacity="0.8"/>
    <rect x="205" y="58" width="8" height="2" fill="white" opacity="0.8"/>
    <rect x="205" y="64" width="6" height="2" fill="white" opacity="0.8"/>
  </g>

  <!-- Decorative elements -->
  <circle cx="320" cy="180" r="40" fill="url(#iconGradient)" opacity="0.1"/>
  <circle cx="60" cy="180" r="25" fill="url(#iconGradient)" opacity="0.1"/>

  <!-- Success indicator -->
  <g transform="translate(300, 40)">
    <circle cx="0" cy="0" r="15" fill="#10B981" opacity="0.9"/>
    <path d="M-6 0 L-2 4 L6 -4" stroke="white" stroke-width="2" fill="none" stroke-linecap="round"/>
  </g>

  <!-- Small business elements -->
  <g opacity="0.6" transform="translate(150, 140)">
    <!-- Simple building -->
    <rect x="0" y="20" width="40" height="30" fill="url(#iconGradient)" opacity="0.3"/>
    <rect x="10" y="30" width="8" height="8" fill="white" opacity="0.8"/>
    <rect x="22" y="30" width="8" height="8" fill="white" opacity="0.8"/>
    <rect x="10" y="40" width="8" height="10" fill="white" opacity="0.8"/>
    <rect x="22" y="40" width="8" height="10" fill="white" opacity="0.8"/>
    <!-- Roof -->
    <path d="M-5 20 L20 5 L45 20 Z" fill="url(#iconGradient)" opacity="0.4"/>
  </g>
</svg>